<svg width="267" height="85" viewBox="0 0 267 85" fill="none" xmlns="http://www.w3.org/2000/svg">
<rect y="1" width="93" height="22" rx="8" fill="white"/>
<path d="M13.2422 10.1016H14.4063C14.3711 8.82031 13.2383 7.89062 11.6133 7.89062C10.0078 7.89062 8.77734 8.80859 8.77734 10.1875C8.77734 11.3008 9.57422 11.9531 10.8594 12.3008L11.8047 12.5586C12.6602 12.7852 13.3203 13.0664 13.3203 13.7773C13.3203 14.5586 12.5742 15.0742 11.5469 15.0742C10.6172 15.0742 9.84375 14.6602 9.77344 13.7891H8.5625C8.64063 15.2383 9.76172 16.1328 11.5547 16.1328C13.4336 16.1328 14.5156 15.1445 14.5156 13.7891C14.5156 12.3477 13.2305 11.7891 12.2148 11.5391L11.4336 11.3359C10.8086 11.1758 9.97656 10.8828 9.98047 10.1172C9.98047 9.4375 10.6016 8.93359 11.5859 8.93359C12.5039 8.93359 13.1562 9.36328 13.2422 10.1016ZM18.665 10H17.4346V8.5625H16.2666V10H15.3877V10.9375H16.2666V14.4805C16.2627 15.5703 17.0947 16.0977 18.0166 16.0781C18.3877 16.0742 18.6377 16.0039 18.7744 15.9531L18.5635 14.9883C18.4854 15.0039 18.3408 15.0391 18.1533 15.0391C17.7744 15.0391 17.4346 14.9141 17.4346 14.2383V10.9375H18.665V10ZM20.6953 18.25C21.6602 18.25 22.2695 17.7461 22.6172 16.8008L25.0977 10.0117L23.8359 10L22.3164 14.6562H22.2539L20.7344 10H19.4844L21.6797 16.0781L21.5352 16.4766C21.2383 17.2734 20.8203 17.3398 20.1797 17.1641L19.8984 18.1211C20.0391 18.1836 20.3438 18.25 20.6953 18.25ZM27.3662 8H26.1982V16H27.3662V8ZM31.5234 16.1211C32.832 16.1211 33.7578 15.4766 34.0234 14.5L32.918 14.3008C32.707 14.8672 32.1992 15.1562 31.5352 15.1562C30.5352 15.1562 29.8633 14.5078 29.832 13.3516H34.0977V12.9375C34.0977 10.7695 32.8008 9.92188 31.4414 9.92188C29.7695 9.92188 28.668 11.1953 28.668 13.0391C28.668 14.9023 29.7539 16.1211 31.5234 16.1211ZM29.8359 12.4766C29.8828 11.625 30.5 10.8867 31.4492 10.8867C32.3555 10.8867 32.9492 11.5586 32.9531 12.4766H29.8359ZM44.8555 8H43.6602V13.875H43.5859L39.5156 8H38.3984V16H39.6055V10.1328H39.6797L43.7461 16H44.8555V8ZM48.2686 16.1328C49.2607 16.1328 49.8193 15.6289 50.042 15.1797H50.0889V16H51.2295V12.0156C51.2295 10.2695 49.8545 9.92188 48.9014 9.92188C47.8154 9.92188 46.8154 10.3594 46.4248 11.4531L47.5225 11.7031C47.6943 11.2773 48.1318 10.8672 48.917 10.8672C49.6709 10.8672 50.0576 11.2617 50.0576 11.9414V11.9687C50.0576 12.3945 49.6201 12.3867 48.542 12.5117C47.4053 12.6445 46.2412 12.9414 46.2412 14.3047C46.2412 15.4844 47.1279 16.1328 48.2686 16.1328ZM48.5225 15.1953C47.8623 15.1953 47.3857 14.8984 47.3857 14.3203C47.3857 13.6953 47.9404 13.4727 48.6162 13.3828C48.9951 13.332 49.8936 13.2305 50.0615 13.0625V13.8359C50.0615 14.5469 49.4951 15.1953 48.5225 15.1953ZM52.7852 16H53.9531V12.3008C53.9531 11.4922 54.5195 10.9297 55.1836 10.9297C55.832 10.9297 56.2813 11.3594 56.2813 12.0117V16H57.4453V12.1758C57.4453 11.4531 57.8867 10.9297 58.6484 10.9297C59.2656 10.9297 59.7734 11.2734 59.7734 12.0859V16H60.9414V11.9766C60.9414 10.6055 60.1758 9.92188 59.0898 9.92188C58.2266 9.92188 57.5781 10.3359 57.2891 10.9766H57.2266C56.9648 10.3203 56.4141 9.92188 55.6133 9.92188C54.8203 9.92188 54.2305 10.3164 53.9805 10.9766H53.9062V10H52.7852V16ZM65.0928 16.1211C66.4014 16.1211 67.3271 15.4766 67.5928 14.5L66.4873 14.3008C66.2764 14.8672 65.7686 15.1562 65.1045 15.1562C64.1045 15.1562 63.4326 14.5078 63.4014 13.3516H67.667V12.9375C67.667 10.7695 66.3701 9.92188 65.0107 9.92188C63.3389 9.92188 62.2373 11.1953 62.2373 13.0391C62.2373 14.9023 63.3232 16.1211 65.0928 16.1211ZM63.4053 12.4766C63.4521 11.625 64.0693 10.8867 65.0186 10.8867C65.9248 10.8867 66.5186 11.5586 66.5225 12.4766H63.4053Z" fill="#F99595"/>
<rect x="111" y="1" width="54" height="22" rx="8" fill="white"/>
<path d="M119.484 9.03906H121.977V16H123.18V9.03906H125.676V8H119.484V9.03906ZM128.118 12.4375C128.118 11.4805 128.724 10.9336 129.556 10.9336C130.36 10.9336 130.841 11.4453 130.841 12.3242V16H132.009V12.1836C132.009 10.6875 131.188 9.92188 129.954 9.92188C129.021 9.92188 128.458 10.3281 128.177 10.9766H128.103V8H126.95V16H128.118V12.4375ZM136.153 16.1211C137.462 16.1211 138.388 15.4766 138.653 14.5L137.548 14.3008C137.337 14.8672 136.829 15.1562 136.165 15.1562C135.165 15.1562 134.493 14.5078 134.462 13.3516H138.728V12.9375C138.728 10.7695 137.431 9.92188 136.071 9.92188C134.399 9.92188 133.298 11.1953 133.298 13.0391C133.298 14.9023 134.384 16.1211 136.153 16.1211ZM134.466 12.4766C134.513 11.625 135.13 10.8867 136.079 10.8867C136.985 10.8867 137.579 11.5586 137.583 12.4766H134.466ZM140.023 16H141.191V12.3008C141.191 11.4922 141.758 10.9297 142.422 10.9297C143.07 10.9297 143.52 11.3594 143.52 12.0117V16H144.684V12.1758C144.684 11.4531 145.125 10.9297 145.887 10.9297C146.504 10.9297 147.012 11.2734 147.012 12.0859V16H148.18V11.9766C148.18 10.6055 147.414 9.92188 146.328 9.92188C145.465 9.92188 144.816 10.3359 144.527 10.9766H144.465C144.203 10.3203 143.652 9.92188 142.852 9.92188C142.059 9.92188 141.469 10.3164 141.219 10.9766H141.145V10H140.023V16ZM152.331 16.1211C153.64 16.1211 154.565 15.4766 154.831 14.5L153.726 14.3008C153.515 14.8672 153.007 15.1562 152.343 15.1562C151.343 15.1562 150.671 14.5078 150.64 13.3516H154.905V12.9375C154.905 10.7695 153.608 9.92188 152.249 9.92188C150.577 9.92188 149.476 11.1953 149.476 13.0391C149.476 14.9023 150.562 16.1211 152.331 16.1211ZM150.644 12.4766C150.69 11.625 151.308 10.8867 152.257 10.8867C153.163 10.8867 153.757 11.5586 153.761 12.4766H150.644Z" fill="#F99595"/>
<rect x="174" y="1" width="93" height="22" rx="8" fill="white"/>
<path d="M182.879 16H184.086V12.5117H187.484V11.4766H184.086V9.03906H187.84V8H182.879V16ZM189.23 16H190.398V10H189.23V16ZM189.82 9.07422C190.223 9.07422 190.559 8.76172 190.559 8.37891C190.559 7.99609 190.223 7.67969 189.82 7.67969C189.414 7.67969 189.082 7.99609 189.082 8.37891C189.082 8.76172 189.414 9.07422 189.82 9.07422ZM194.485 18.375C196.013 18.375 197.192 17.6758 197.192 16.1328V10H196.048V10.9727H195.962C195.755 10.6016 195.341 9.92188 194.224 9.92188C192.774 9.92188 191.708 11.0664 191.708 12.9766C191.708 14.8906 192.798 15.9102 194.216 15.9102C195.317 15.9102 195.743 15.2891 195.954 14.9062H196.028V16.0859C196.028 17.0273 195.384 17.4336 194.497 17.4336C193.524 17.4336 193.146 16.9453 192.938 16.6016L191.935 17.0156C192.251 17.75 193.052 18.375 194.485 18.375ZM194.474 14.9414C193.431 14.9414 192.888 14.1406 192.888 12.9609C192.888 11.8086 193.419 10.9141 194.474 10.9141C195.493 10.9141 196.04 11.7461 196.04 12.9609C196.04 14.1992 195.481 14.9414 194.474 14.9414ZM198.759 16H199.927V12.3008C199.927 11.4922 200.493 10.9297 201.157 10.9297C201.806 10.9297 202.255 11.3594 202.255 12.0117V16H203.419V12.1758C203.419 11.4531 203.86 10.9297 204.622 10.9297C205.239 10.9297 205.747 11.2734 205.747 12.0859V16H206.915V11.9766C206.915 10.6055 206.149 9.92188 205.063 9.92188C204.2 9.92188 203.552 10.3359 203.263 10.9766H203.2C202.938 10.3203 202.388 9.92188 201.587 9.92188C200.794 9.92188 200.204 10.3164 199.954 10.9766H199.88V10H198.759V16ZM210.227 16.1328C211.219 16.1328 211.777 15.6289 212 15.1797H212.047V16H213.188V12.0156C213.188 10.2695 211.813 9.92188 210.859 9.92188C209.773 9.92188 208.773 10.3594 208.383 11.4531L209.48 11.7031C209.652 11.2773 210.09 10.8672 210.875 10.8672C211.629 10.8672 212.016 11.2617 212.016 11.9414V11.9687C212.016 12.3945 211.578 12.3867 210.5 12.5117C209.363 12.6445 208.199 12.9414 208.199 14.3047C208.199 15.4844 209.086 16.1328 210.227 16.1328ZM210.48 15.1953C209.82 15.1953 209.344 14.8984 209.344 14.3203C209.344 13.6953 209.898 13.4727 210.574 13.3828C210.953 13.332 211.852 13.2305 212.02 13.0625V13.8359C212.02 14.5469 211.453 15.1953 210.48 15.1953ZM222.111 10.1016H223.275C223.24 8.82031 222.107 7.89062 220.482 7.89062C218.877 7.89062 217.646 8.80859 217.646 10.1875C217.646 11.3008 218.443 11.9531 219.729 12.3008L220.674 12.5586C221.529 12.7852 222.189 13.0664 222.189 13.7773C222.189 14.5586 221.443 15.0742 220.416 15.0742C219.486 15.0742 218.713 14.6602 218.643 13.7891H217.432C217.51 15.2383 218.631 16.1328 220.424 16.1328C222.303 16.1328 223.385 15.1445 223.385 13.7891C223.385 12.3477 222.1 11.7891 221.084 11.5391L220.303 11.3359C219.678 11.1758 218.846 10.8828 218.85 10.1172C218.85 9.4375 219.471 8.93359 220.455 8.93359C221.373 8.93359 222.025 9.36328 222.111 10.1016ZM227.534 10H226.304V8.5625H225.136V10H224.257V10.9375H225.136V14.4805C225.132 15.5703 225.964 16.0977 226.886 16.0781C227.257 16.0742 227.507 16.0039 227.644 15.9531L227.433 14.9883C227.354 15.0039 227.21 15.0391 227.022 15.0391C226.644 15.0391 226.304 14.9141 226.304 14.2383V10.9375H227.534V10ZM229.564 18.25C230.529 18.25 231.139 17.7461 231.486 16.8008L233.967 10.0117L232.705 10L231.186 14.6562H231.123L229.604 10H228.354L230.549 16.0781L230.404 16.4766C230.107 17.2734 229.689 17.3398 229.049 17.1641L228.768 18.1211C228.908 18.1836 229.213 18.25 229.564 18.25ZM236.235 8H235.067V16H236.235V8ZM240.393 16.1211C241.701 16.1211 242.627 15.4766 242.893 14.5L241.787 14.3008C241.576 14.8672 241.068 15.1562 240.404 15.1562C239.404 15.1562 238.732 14.5078 238.701 13.3516H242.967V12.9375C242.967 10.7695 241.67 9.92188 240.311 9.92188C238.639 9.92188 237.537 11.1953 237.537 13.0391C237.537 14.9023 238.623 16.1211 240.393 16.1211ZM238.705 12.4766C238.752 11.625 239.369 10.8867 240.318 10.8867C241.225 10.8867 241.818 11.5586 241.822 12.4766H238.705ZM248.475 8H247.268V16H248.475V8ZM252.822 16C255.26 16 256.67 14.4883 256.67 11.9883C256.67 9.5 255.26 8 252.904 8H250.232V16H252.822ZM251.439 14.9453V9.05469H252.83C254.58 9.05469 255.482 10.1016 255.482 11.9883C255.482 13.8828 254.58 14.9453 252.756 14.9453H251.439Z" fill="#F99595"/>
<path d="M165 12H174" stroke="white" stroke-width="2"/>
<path d="M93 12L111 12" stroke="white" stroke-width="2"/>
<rect y="33" width="93" height="22" rx="8" fill="#F99595"/>
<path d="M11.832 39.625H10.7891L8.21094 49.2031H9.25391L11.832 39.625ZM15.8291 48H18.8955C20.7549 48 21.5947 47.0742 21.5947 45.8477C21.5947 44.6094 20.7275 43.9102 19.9346 43.8672V43.7891C20.6689 43.6016 21.2822 43.1016 21.2822 42.1016C21.2822 40.918 20.4619 40 18.7588 40H15.8291V48ZM17.0361 46.9648V44.4023H18.8213C19.79 44.4023 20.3955 45.0273 20.3955 45.7891C20.3955 46.4609 19.9385 46.9648 18.7783 46.9648H17.0361ZM17.0361 43.4609V41.0273H18.6846C19.6416 41.0273 20.0986 41.5312 20.0986 42.1953C20.0986 42.9687 19.4658 43.4609 18.6533 43.4609H17.0361ZM26.7334 45.5117C26.7373 46.5312 25.9795 47.0156 25.3232 47.0156C24.6006 47.0156 24.1006 46.4922 24.1006 45.6758V42H22.9326V45.8164C22.9326 47.3047 23.749 48.0781 24.9014 48.0781C25.8037 48.0781 26.417 47.6016 26.6943 46.9609H26.7568V48H27.9053V42H26.7334V45.5117ZM32.2754 42H31.0449V40.5625H29.877V42H28.998V42.9375H29.877V46.4805C29.873 47.5703 30.7051 48.0977 31.627 48.0781C31.998 48.0742 32.248 48.0039 32.3848 47.9531L32.1738 46.9883C32.0957 47.0039 31.9512 47.0391 31.7637 47.0391C31.3848 47.0391 31.0449 46.9141 31.0449 46.2383V42.9375H32.2754V42ZM36.3682 42H35.1377V40.5625H33.9697V42H33.0908V42.9375H33.9697V46.4805C33.9658 47.5703 34.7979 48.0977 35.7197 48.0781C36.0908 48.0742 36.3408 48.0039 36.4775 47.9531L36.2666 46.9883C36.1885 47.0039 36.0439 47.0391 35.8564 47.0391C35.4775 47.0391 35.1377 46.9141 35.1377 46.2383V42.9375H36.3682V42ZM40.123 48.1211C41.8145 48.1211 42.9199 46.8828 42.9199 45.0273C42.9199 43.1602 41.8145 41.9219 40.123 41.9219C38.4316 41.9219 37.3262 43.1602 37.3262 45.0273C37.3262 46.8828 38.4316 48.1211 40.123 48.1211ZM40.127 47.1406C39.0215 47.1406 38.5059 46.1758 38.5059 45.0234C38.5059 43.875 39.0215 42.8984 40.127 42.8984C41.2246 42.8984 41.7402 43.875 41.7402 45.0234C41.7402 46.1758 41.2246 47.1406 40.127 47.1406ZM45.3916 44.4375C45.3916 43.4805 45.9775 42.9336 46.79 42.9336C47.583 42.9336 48.0635 43.4531 48.0635 44.3242V48H49.2314V44.1836C49.2314 42.6992 48.415 41.9219 47.1885 41.9219C46.2861 41.9219 45.6963 42.3398 45.4189 42.9766H45.3447V42H44.2236V48H45.3916V44.4375ZM56.7559 39.625H55.7129L53.1348 49.2031H54.1777L56.7559 39.625ZM60.3584 41.0391H62.8506V48H64.0537V41.0391H66.5498V40H60.3584V41.0391ZM69.54 48.1211C70.8486 48.1211 71.7744 47.4766 72.04 46.5L70.9346 46.3008C70.7236 46.8672 70.2158 47.1562 69.5518 47.1562C68.5518 47.1562 67.8799 46.5078 67.8486 45.3516H72.1143V44.9375C72.1143 42.7695 70.8174 41.9219 69.458 41.9219C67.7861 41.9219 66.6846 43.1953 66.6846 45.0391C66.6846 46.9023 67.7705 48.1211 69.54 48.1211ZM67.8525 44.4766C67.8994 43.625 68.5166 42.8867 69.4658 42.8867C70.3721 42.8867 70.9658 43.5586 70.9697 44.4766H67.8525ZM74.1924 42H72.9111L74.7549 45L72.8877 48H74.1689L75.5166 45.7578L76.8682 48H78.1455L76.2588 45L78.1299 42H76.8525L75.5166 44.3359L74.1924 42ZM82.1299 42H80.8994V40.5625H79.7314V42H78.8525V42.9375H79.7314V46.4805C79.7275 47.5703 80.5596 48.0977 81.4814 48.0781C81.8525 48.0742 82.1025 48.0039 82.2393 47.9531L82.0283 46.9883C81.9502 47.0039 81.8057 47.0391 81.6182 47.0391C81.2393 47.0391 80.8994 46.9141 80.8994 46.2383V42.9375H82.1299V42Z" fill="white"/>
<rect x="111" y="33" width="54" height="22" rx="8" fill="#F99595"/>
<path d="M119.879 48H124.711V46.9609H121.086V40H119.879V48ZM125.994 48H127.162V42H125.994V48ZM126.584 41.0742C126.986 41.0742 127.322 40.7617 127.322 40.3789C127.322 39.9961 126.986 39.6797 126.584 39.6797C126.178 39.6797 125.846 39.9961 125.846 40.3789C125.846 40.7617 126.178 41.0742 126.584 41.0742ZM131.249 50.375C132.776 50.375 133.956 49.6758 133.956 48.1328V42H132.812V42.9727H132.726C132.519 42.6016 132.104 41.9219 130.987 41.9219C129.538 41.9219 128.472 43.0664 128.472 44.9766C128.472 46.8906 129.562 47.9102 130.979 47.9102C132.081 47.9102 132.507 47.2891 132.718 46.9062H132.792V48.0859C132.792 49.0273 132.147 49.4336 131.261 49.4336C130.288 49.4336 129.909 48.9453 129.702 48.6016L128.698 49.0156C129.015 49.75 129.815 50.375 131.249 50.375ZM131.237 46.9414C130.194 46.9414 129.651 46.1406 129.651 44.9609C129.651 43.8086 130.183 42.9141 131.237 42.9141C132.257 42.9141 132.804 43.7461 132.804 44.9609C132.804 46.1992 132.245 46.9414 131.237 46.9414ZM136.69 44.4375C136.69 43.4805 137.296 42.9336 138.128 42.9336C138.933 42.9336 139.413 43.4453 139.413 44.3242V48H140.581V44.1836C140.581 42.6875 139.761 41.9219 138.526 41.9219C137.593 41.9219 137.03 42.3281 136.749 42.9766H136.675V40H135.522V48H136.69V44.4375ZM144.94 42H143.71V40.5625H142.542V42H141.663V42.9375H142.542V46.4805C142.538 47.5703 143.37 48.0977 144.292 48.0781C144.663 48.0742 144.913 48.0039 145.05 47.9531L144.839 46.9883C144.761 47.0039 144.616 47.0391 144.429 47.0391C144.05 47.0391 143.71 46.9141 143.71 46.2383V42.9375H144.94V42Z" fill="white"/>
<rect x="174" y="33" width="93" height="22" rx="8" fill="#F99595"/>
<path d="M187.242 42.1016H188.406C188.371 40.8203 187.238 39.8906 185.613 39.8906C184.008 39.8906 182.777 40.8086 182.777 42.1875C182.777 43.3008 183.574 43.9531 184.859 44.3008L185.805 44.5586C186.66 44.7852 187.32 45.0664 187.32 45.7773C187.32 46.5586 186.574 47.0742 185.547 47.0742C184.617 47.0742 183.844 46.6602 183.773 45.7891H182.563C182.641 47.2383 183.762 48.1328 185.555 48.1328C187.434 48.1328 188.516 47.1445 188.516 45.7891C188.516 44.3477 187.23 43.7891 186.215 43.5391L185.434 43.3359C184.809 43.1758 183.977 42.8828 183.98 42.1172C183.98 41.4375 184.602 40.9336 185.586 40.9336C186.504 40.9336 187.156 41.3633 187.242 42.1016ZM190.634 43.707C191.06 43.707 191.415 43.3594 191.415 42.9258C191.415 42.5 191.06 42.1484 190.634 42.1484C190.204 42.1484 189.853 42.5 189.853 42.9258C189.853 43.3594 190.204 43.707 190.634 43.707ZM190.634 48.0742C191.06 48.0742 191.415 47.7266 191.415 47.293C191.415 46.8672 191.06 46.5156 190.634 46.5156C190.204 46.5156 189.853 46.8672 189.853 47.293C189.853 47.7266 190.204 48.0742 190.634 48.0742ZM194.147 44.4375C194.147 43.4805 194.753 42.9336 195.585 42.9336C196.39 42.9336 196.87 43.4453 196.87 44.3242V48H198.038V44.1836C198.038 42.6875 197.218 41.9219 195.983 41.9219C195.05 41.9219 194.487 42.3281 194.206 42.9766H194.132V40H192.979V48H194.147V44.4375ZM199.581 48H204.847V46.9648H201.245V46.9062L202.835 45.2422C204.3 43.7617 204.718 43.0547 204.718 42.1602C204.718 40.875 203.671 39.8906 202.163 39.8906C200.667 39.8906 199.573 40.8594 199.573 42.3203H200.726C200.722 41.4609 201.276 40.8984 202.14 40.8984C202.952 40.8984 203.569 41.3984 203.569 42.1953C203.569 42.9023 203.147 43.4102 202.288 44.3203L199.581 47.125V48ZM209.03 48.1094C210.694 48.1094 211.87 47.1641 211.878 45.8672C211.87 44.8594 211.163 44.0117 210.269 43.8516V43.8047C211.046 43.6172 211.573 42.8867 211.581 42.0234C211.573 40.8008 210.495 39.8906 209.03 39.8906C207.55 39.8906 206.472 40.8008 206.479 42.0234C206.472 42.8828 206.999 43.6172 207.792 43.8047V43.8516C206.882 44.0117 206.175 44.8594 206.183 45.8672C206.175 47.1641 207.351 48.1094 209.03 48.1094ZM209.03 47.1211C208.03 47.1211 207.397 46.5898 207.405 45.7891C207.397 44.957 208.085 44.3633 209.03 44.3633C209.96 44.3633 210.647 44.957 210.655 45.7891C210.647 46.5898 210.019 47.1211 209.03 47.1211ZM209.03 43.3984C208.222 43.3984 207.647 42.8867 207.655 42.125C207.647 41.375 208.202 40.8789 209.03 40.8789C209.843 40.8789 210.397 41.375 210.405 42.125C210.397 42.8867 209.827 43.3984 209.03 43.3984ZM216.062 48.1094C217.695 48.1094 218.895 47.1328 218.891 45.8047C218.895 44.793 218.281 44.0664 217.219 43.9023V43.8398C218.055 43.625 218.598 42.9687 218.594 42.0703C218.598 40.8945 217.633 39.8906 216.094 39.8906C214.625 39.8906 213.445 40.7773 213.406 42.0781H214.574C214.602 41.3438 215.293 40.8984 216.078 40.8984C216.895 40.8984 217.43 41.3945 217.426 42.1328C217.43 42.9062 216.809 43.4141 215.922 43.4141H215.246V44.3984H215.922C217.031 44.3984 217.672 44.9609 217.672 45.7656C217.672 46.543 216.996 47.0703 216.055 47.0703C215.188 47.0703 214.512 46.625 214.465 45.9141H213.238C213.289 47.2188 214.445 48.1094 216.062 48.1094ZM220.367 48H225.633V46.9648H222.031V46.9062L223.621 45.2422C225.086 43.7617 225.504 43.0547 225.504 42.1602C225.504 40.875 224.457 39.8906 222.949 39.8906C221.453 39.8906 220.359 40.8594 220.359 42.3203H221.512C221.508 41.4609 222.063 40.8984 222.926 40.8984C223.738 40.8984 224.355 41.3984 224.355 42.1953C224.355 42.9023 223.934 43.4102 223.074 44.3203L220.367 47.125V48ZM229.656 48.1211C231.074 48.1211 231.992 47.2695 232.121 46.1016H230.984C230.836 46.75 230.332 47.1328 229.664 47.1328C228.676 47.1328 228.039 46.3086 228.039 45C228.039 43.7148 228.688 42.9062 229.664 42.9062C230.406 42.9062 230.859 43.375 230.984 43.9375H232.121C231.996 42.7266 231.008 41.9219 229.645 41.9219C227.953 41.9219 226.859 43.1953 226.859 45.0273C226.859 46.8359 227.914 48.1211 229.656 48.1211ZM236.226 42H234.933V41.4609C234.933 40.9297 235.151 40.6406 235.722 40.6406C235.964 40.6406 236.136 40.6953 236.245 40.7305L236.519 39.7852C236.354 39.7227 236.015 39.625 235.542 39.625C234.593 39.625 233.761 40.1797 233.761 41.3047V42H232.835V42.9375H233.761V48H234.933V42.9375H236.226V42ZM238.994 48.1328C239.986 48.1328 240.545 47.6289 240.768 47.1797H240.814V48H241.955V44.0156C241.955 42.2695 240.58 41.9219 239.627 41.9219C238.541 41.9219 237.541 42.3594 237.15 43.4531L238.248 43.7031C238.42 43.2773 238.857 42.8672 239.643 42.8672C240.396 42.8672 240.783 43.2617 240.783 43.9414V43.9687C240.783 44.3945 240.346 44.3867 239.268 44.5117C238.131 44.6445 236.967 44.9414 236.967 46.3047C236.967 47.4844 237.854 48.1328 238.994 48.1328ZM239.248 47.1953C238.588 47.1953 238.111 46.8984 238.111 46.3203C238.111 45.6953 238.666 45.4727 239.342 45.3828C239.721 45.332 240.619 45.2305 240.787 45.0625V45.8359C240.787 46.5469 240.221 47.1953 239.248 47.1953ZM243.604 48H244.745V47.0664H244.843C245.054 47.4492 245.483 48.1172 246.577 48.1172C248.03 48.1172 249.085 46.9531 249.085 45.0117C249.085 43.0664 248.015 41.9219 246.565 41.9219C245.452 41.9219 245.05 42.6016 244.843 42.9727H244.772V40H243.604V48ZM244.749 45C244.749 43.7461 245.296 42.9141 246.315 42.9141C247.374 42.9141 247.905 43.8086 247.905 45C247.905 46.2031 247.358 47.1211 246.315 47.1211C245.312 47.1211 244.749 46.2617 244.749 45ZM251.166 48.0742C251.592 48.0742 251.947 47.7266 251.947 47.293C251.947 46.8672 251.592 46.5156 251.166 46.5156C250.736 46.5156 250.385 46.8672 250.385 47.293C250.385 47.7266 250.736 48.0742 251.166 48.0742ZM254.281 48.0742C254.707 48.0742 255.063 47.7266 255.063 47.293C255.063 46.8672 254.707 46.5156 254.281 46.5156C253.852 46.5156 253.5 46.8672 253.5 47.293C253.5 47.7266 253.852 48.0742 254.281 48.0742ZM257.396 48.0742C257.822 48.0742 258.178 47.7266 258.178 47.293C258.178 46.8672 257.822 46.5156 257.396 46.5156C256.967 46.5156 256.615 46.8672 256.615 47.293C256.615 47.7266 256.967 48.0742 257.396 48.0742Z" fill="white"/>
<path d="M93 44H111" stroke="#F99595" stroke-width="2"/>
<path d="M102 44V74H111" stroke="#F99595" stroke-width="2"/>
<path d="M165 44H174" stroke="#F99595" stroke-width="2"/>
<rect x="111" y="63" width="54" height="22" rx="8" fill="#F99595"/>
<path d="M122.469 78C124.906 78 126.316 76.4883 126.316 73.9883C126.316 71.5 124.906 70 122.551 70H119.879V78H122.469ZM121.086 76.9453V71.0547H122.477C124.227 71.0547 125.129 72.1016 125.129 73.9883C125.129 75.8828 124.227 76.9453 122.402 76.9453H121.086ZM129.47 78.1328C130.462 78.1328 131.021 77.6289 131.243 77.1797H131.29V78H132.431V74.0156C132.431 72.2695 131.056 71.9219 130.103 71.9219C129.017 71.9219 128.017 72.3594 127.626 73.4531L128.724 73.7031C128.896 73.2773 129.333 72.8672 130.118 72.8672C130.872 72.8672 131.259 73.2617 131.259 73.9414V73.9687C131.259 74.3945 130.821 74.3867 129.743 74.5117C128.606 74.6445 127.442 74.9414 127.442 76.3047C127.442 77.4844 128.329 78.1328 129.47 78.1328ZM129.724 77.1953C129.063 77.1953 128.587 76.8984 128.587 76.3203C128.587 75.6953 129.142 75.4727 129.817 75.3828C130.196 75.332 131.095 75.2305 131.263 75.0625V75.8359C131.263 76.5469 130.696 77.1953 129.724 77.1953ZM133.986 78H135.154V74.3359C135.154 73.5508 135.76 72.9844 136.588 72.9844C136.83 72.9844 137.104 73.0273 137.197 73.0547V71.9375C137.08 71.9219 136.85 71.9102 136.701 71.9102C135.998 71.9102 135.396 72.3086 135.178 72.9531H135.115V72H133.986V78ZM138.208 78H139.376V75.8711L139.958 75.2891L141.997 78H143.431L140.837 74.5742L143.267 72H141.868L139.478 74.5391H139.376V70H138.208V78Z" fill="white"/>
<rect x="174" y="63" width="93" height="22" rx="8" fill="#F99595"/>
<path d="M187.242 72.1016H188.406C188.371 70.8203 187.238 69.8906 185.613 69.8906C184.008 69.8906 182.777 70.8086 182.777 72.1875C182.777 73.3008 183.574 73.9531 184.859 74.3008L185.805 74.5586C186.66 74.7852 187.32 75.0664 187.32 75.7773C187.32 76.5586 186.574 77.0742 185.547 77.0742C184.617 77.0742 183.844 76.6602 183.773 75.7891H182.563C182.641 77.2383 183.762 78.1328 185.555 78.1328C187.434 78.1328 188.516 77.1445 188.516 75.7891C188.516 74.3477 187.23 73.7891 186.215 73.5391L185.434 73.3359C184.809 73.1758 183.977 72.8828 183.98 72.1172C183.98 71.4375 184.602 70.9336 185.586 70.9336C186.504 70.9336 187.156 71.3633 187.242 72.1016ZM190.634 73C191.06 73 191.415 72.6523 191.415 72.2187C191.415 71.793 191.06 71.4414 190.634 71.4414C190.204 71.4414 189.853 71.793 189.853 72.2187C189.853 72.6523 190.204 73 190.634 73ZM190.634 77.0078C191.06 77.0078 191.415 76.6602 191.415 76.2266C191.415 75.8008 191.06 75.4492 190.634 75.4492C190.204 75.4492 189.853 75.8008 189.853 76.2266C189.853 76.6602 190.204 77.0078 190.634 77.0078ZM195.667 78.1094C197.331 78.1094 198.507 77.1641 198.515 75.8672C198.507 74.8594 197.8 74.0117 196.905 73.8516V73.8047C197.683 73.6172 198.21 72.8867 198.218 72.0234C198.21 70.8008 197.132 69.8906 195.667 69.8906C194.187 69.8906 193.108 70.8008 193.116 72.0234C193.108 72.8828 193.636 73.6172 194.429 73.8047V73.8516C193.519 74.0117 192.812 74.8594 192.819 75.8672C192.812 77.1641 193.987 78.1094 195.667 78.1094ZM195.667 77.1211C194.667 77.1211 194.034 76.5898 194.042 75.7891C194.034 74.957 194.722 74.3633 195.667 74.3633C196.597 74.3633 197.284 74.957 197.292 75.7891C197.284 76.5898 196.655 77.1211 195.667 77.1211ZM195.667 73.3984C194.858 73.3984 194.284 72.8867 194.292 72.125C194.284 71.375 194.839 70.8789 195.667 70.8789C196.479 70.8789 197.034 71.375 197.042 72.125C197.034 72.8867 196.464 73.3984 195.667 73.3984ZM202.699 78.1094C204.332 78.1094 205.531 77.1328 205.527 75.8047C205.531 74.793 204.918 74.0664 203.855 73.9023V73.8398C204.691 73.625 205.234 72.9687 205.23 72.0703C205.234 70.8945 204.27 69.8906 202.73 69.8906C201.262 69.8906 200.082 70.7773 200.043 72.0781H201.211C201.238 71.3438 201.93 70.8984 202.715 70.8984C203.531 70.8984 204.066 71.3945 204.063 72.1328C204.066 72.9062 203.445 73.4141 202.559 73.4141H201.883V74.3984H202.559C203.668 74.3984 204.309 74.9609 204.309 75.7656C204.309 76.543 203.633 77.0703 202.691 77.0703C201.824 77.0703 201.148 76.625 201.102 75.9141H199.875C199.926 77.2188 201.082 78.1094 202.699 78.1094ZM207.004 78H212.27V76.9648H208.668V76.9062L210.258 75.2422C211.723 73.7617 212.141 73.0547 212.141 72.1602C212.141 70.875 211.094 69.8906 209.586 69.8906C208.09 69.8906 206.996 70.8594 206.996 72.3203H208.148C208.145 71.4609 208.699 70.8984 209.562 70.8984C210.375 70.8984 210.992 71.3984 210.992 72.1953C210.992 72.9023 210.57 73.4102 209.711 74.3203L207.004 77.125V78ZM216.293 78.1211C217.711 78.1211 218.629 77.2695 218.758 76.1016H217.621C217.473 76.75 216.969 77.1328 216.301 77.1328C215.313 77.1328 214.676 76.3086 214.676 75C214.676 73.7148 215.324 72.9062 216.301 72.9062C217.043 72.9062 217.496 73.375 217.621 73.9375H218.758C218.633 72.7266 217.645 71.9219 216.281 71.9219C214.59 71.9219 213.496 73.1953 213.496 75.0273C213.496 76.8359 214.551 78.1211 216.293 78.1211ZM222.534 78.1211C223.952 78.1211 224.87 77.2695 224.999 76.1016H223.862C223.714 76.75 223.21 77.1328 222.542 77.1328C221.554 77.1328 220.917 76.3086 220.917 75C220.917 73.7148 221.565 72.9062 222.542 72.9062C223.284 72.9062 223.737 73.375 223.862 73.9375H224.999C224.874 72.7266 223.886 71.9219 222.522 71.9219C220.831 71.9219 219.737 73.1953 219.737 75.0273C219.737 76.8359 220.792 78.1211 222.534 78.1211ZM227.994 78.1328C228.986 78.1328 229.545 77.6289 229.768 77.1797H229.814V78H230.955V74.0156C230.955 72.2695 229.58 71.9219 228.627 71.9219C227.541 71.9219 226.541 72.3594 226.15 73.4531L227.248 73.7031C227.42 73.2773 227.857 72.8672 228.643 72.8672C229.396 72.8672 229.783 73.2617 229.783 73.9414V73.9687C229.783 74.3945 229.346 74.3867 228.268 74.5117C227.131 74.6445 225.967 74.9414 225.967 76.3047C225.967 77.4844 226.854 78.1328 227.994 78.1328ZM228.248 77.1953C227.588 77.1953 227.111 76.8984 227.111 76.3203C227.111 75.6953 227.666 75.4727 228.342 75.3828C228.721 75.332 229.619 75.2305 229.787 75.0625V75.8359C229.787 76.5469 229.221 77.1953 228.248 77.1953ZM235.28 78.1328C237.128 78.1328 238.21 76.625 238.21 74.0039C238.21 71.4023 237.112 69.8906 235.28 69.8906C233.444 69.8906 232.351 71.3984 232.347 74.0039C232.347 76.6211 233.429 78.1289 235.28 78.1328ZM235.28 77.0898C234.198 77.0898 233.546 76.0039 233.546 74.0039C233.55 72.0117 234.202 70.9141 235.28 70.9141C236.354 70.9141 237.011 72.0117 237.011 74.0039C237.011 76.0039 236.358 77.0898 235.28 77.0898ZM239.596 78H244.861V76.9648H241.26V76.9062L242.85 75.2422C244.314 73.7617 244.732 73.0547 244.732 72.1602C244.732 70.875 243.686 69.8906 242.178 69.8906C240.682 69.8906 239.588 70.8594 239.588 72.3203H240.74C240.736 71.4609 241.291 70.8984 242.154 70.8984C242.967 70.8984 243.584 71.3984 243.584 72.1953C243.584 72.9023 243.162 73.4102 242.303 74.3203L239.596 77.125V78ZM247.127 78.0742C247.553 78.0742 247.908 77.7266 247.908 77.293C247.908 76.8672 247.553 76.5156 247.127 76.5156C246.697 76.5156 246.346 76.8672 246.346 77.293C246.346 77.7266 246.697 78.0742 247.127 78.0742ZM250.242 78.0742C250.668 78.0742 251.023 77.7266 251.023 77.293C251.023 76.8672 250.668 76.5156 250.242 76.5156C249.813 76.5156 249.461 76.8672 249.461 77.293C249.461 77.7266 249.813 78.0742 250.242 78.0742ZM253.357 78.0742C253.783 78.0742 254.139 77.7266 254.139 77.293C254.139 76.8672 253.783 76.5156 253.357 76.5156C252.928 76.5156 252.576 76.8672 252.576 77.293C252.576 77.7266 252.928 78.0742 253.357 78.0742Z" fill="white"/>
<path d="M165 74H174" stroke="#F99595" stroke-width="2"/>
</svg>
