<svg width="100" height="90" viewBox="0 0 100 90" fill="none" xmlns="http://www.w3.org/2000/svg">
<rect x="22" y="9" width="56" height="56" stroke="#E0E0E0" stroke-width="2"/>
<rect x="19" y="6" width="6" height="6" fill="white" stroke="#E0E0E0" stroke-width="2"/>
<rect x="19" y="62" width="6" height="6" fill="white" stroke="#E0E0E0" stroke-width="2"/>
<rect x="75" y="6" width="6" height="6" fill="white" stroke="#E0E0E0" stroke-width="2"/>
<rect x="75" y="62" width="6" height="6" fill="white" stroke="#E0E0E0" stroke-width="2"/>
<path fill-rule="evenodd" clip-rule="evenodd" d="M42.3278 23.1079C44.3058 21.5074 46.9475 20.7742 49.7525 20.7742C52.8022 20.7742 55.5119 21.5568 57.4824 23.1111C59.4786 24.6856 60.6385 26.9949 60.6385 29.8402C60.6385 31.7375 60.1419 33.3249 59.2395 34.6648C58.3467 35.9905 57.0926 37.0214 55.6526 37.8765C54.558 38.5349 53.8817 39.1146 53.4574 39.7822C53.0425 40.435 52.8048 41.274 52.7909 42.5706V44.0604H45.2728V42.5654L45.2728 42.5625C45.2802 39.9411 45.6334 38.09 46.393 36.6644C47.1632 35.2188 48.289 34.3298 49.5673 33.5232C51.3401 32.3988 52.276 31.3932 52.276 30.0586C52.276 28.68 51.2344 27.7245 49.7234 27.7245C48.9866 27.7245 48.3139 27.969 47.8272 28.4018C47.3529 28.8235 47.0006 29.4712 46.9663 30.4012L46.9309 31.3644H39.0039L39.0269 30.3419C39.0984 27.1638 40.3241 24.7292 42.3278 23.1079ZM41.0998 29.3644H45.0869C45.3054 28.3582 45.8038 27.5246 46.4982 26.9072C47.391 26.1133 48.5529 25.7245 49.7234 25.7245C52.1435 25.7245 54.276 27.3897 54.276 30.0586C54.276 32.5385 52.4458 34.0661 50.6375 35.2128L50.6356 35.214C49.4683 35.9505 48.6871 36.612 48.1581 37.6049C47.6563 38.5466 47.3285 39.8883 47.2791 42.0604H50.806C50.874 40.7459 51.167 39.6573 51.7695 38.7093C52.4369 37.6593 53.4198 36.8853 54.6243 36.1611L54.6291 36.1582C55.9107 35.3975 56.9051 34.5507 57.5806 33.5476C58.2471 32.558 58.6385 31.3645 58.6385 29.8402C58.6385 27.5897 57.7455 25.8659 56.2438 24.6814C54.7163 23.4766 52.483 22.7742 49.7525 22.7742C47.2724 22.7742 45.1166 23.4241 43.5858 24.6627C42.2825 25.7173 41.3619 27.2536 41.0998 29.3644ZM44.6467 48.8843C44.632 46.4072 46.6846 44.4191 49.141 44.4191C51.5449 44.4191 53.6165 46.411 53.6353 48.8766L53.6354 48.8842L53.6353 48.8918C53.6166 51.3812 51.5503 53.3786 49.141 53.3786C46.679 53.3786 44.632 51.3849 44.6467 48.8843ZM49.141 46.4191C47.7562 46.4191 46.6365 47.5426 46.6467 48.8766L46.6467 48.8842L46.6467 48.8918C46.6364 50.2605 47.7618 51.3786 49.141 51.3786C50.4566 51.3786 51.6207 50.2642 51.6353 48.8843C51.6207 47.5387 50.4619 46.4191 49.141 46.4191Z" fill="#E0E0E0"/>
<path d="M81.5087 68.1391L79.5991 67.0107L80.018 69.1888L82.518 82.1888L83.0119 84.7572L84.3575 82.5145L87.1508 77.859L92.2631 76.4648L94.5451 75.8424L92.5087 74.6391L81.5087 68.1391Z" fill="white" stroke="#010101" stroke-width="2" stroke-linecap="square"/>
</svg>
