<svg width="32" height="32" viewBox="0 0 32 32" fill="none" xmlns="http://www.w3.org/2000/svg">
<path fill-rule="evenodd" clip-rule="evenodd" d="M12 16.05V9H13V16.05C14.141 16.282 15 17.29 15 18.5C15 19.71 14.141 20.718 13 20.95V23H12V20.95C10.859 20.718 10 19.71 10 18.5C10 17.29 10.859 16.282 12 16.05ZM14 18.5C14 19.328 13.328 20 12.5 20C11.672 20 11 19.328 11 18.5C11 17.672 11.672 17 12.5 17C13.328 17 14 17.672 14 18.5ZM19 23H20V15.95C21.141 15.718 22 14.71 22 13.5C22 12.29 21.141 11.282 20 11.05V9H19V11.05C17.859 11.282 17 12.29 17 13.5C17 14.71 17.859 15.718 19 15.95V23ZM21 13.5C21 12.672 20.328 12 19.5 12C18.672 12 18 12.672 18 13.5C18 14.328 18.672 15 19.5 15C20.328 15 21 14.328 21 13.5Z" fill="#333333"/>
</svg>
