<svg width="32" height="32" viewBox="0 0 32 32" fill="none" xmlns="http://www.w3.org/2000/svg">
<path d="M14 18V14H15V18H14Z" fill="#333333"/>
<path d="M17 18V14H18V18H17Z" fill="#333333"/>
<path fill-rule="evenodd" clip-rule="evenodd" d="M19 10C19 8.89543 18.1046 8 17 8H15C13.8954 8 13 8.89543 13 10H10V11H11V21C11 22.1046 11.8954 23 13 23H19C20.1046 23 21 22.1046 21 21V11H22V10H19ZM15 9C14.4477 9 14 9.44772 14 10H18C18 9.44772 17.5523 9 17 9H15ZM20 11H12V21C12 21.5523 12.4477 22 13 22H19C19.5523 22 20 21.5523 20 21V11Z" fill="#333333"/>
</svg>
