<svg width="32" height="32" viewBox="0 0 32 32" fill="none" xmlns="http://www.w3.org/2000/svg">
<g opacity="0.8" clip-path="url(#clip0)">
<path d="M21.3781 15.1651C20.0235 16.3004 18.8294 17.5588 17.9193 19.0123C17.7844 18.6395 17.6572 18.2639 17.5468 17.8818C17.2046 16.6975 15.7947 16.671 15.1423 17.5634C14.886 17.9144 14.6411 18.2731 14.402 18.6359C14.2066 17.3894 13.8972 16.1639 13.478 14.9753C12.6161 12.5811 11.5473 10.1723 9.96516 8.17295C9.616 7.73255 8.84376 8.20718 9.028 8.72548C9.24267 9.32822 9.56467 9.88312 9.73575 10.4991C9.88163 11.0247 10.0446 11.5431 10.2105 12.0637C10.5945 13.2306 10.9081 14.4201 11.1494 15.6256C11.5944 17.9553 11.9696 20.28 12.0475 22.6557C12.0953 24.1117 13.8236 24.4443 14.6044 23.3572C15.1018 22.6648 15.5406 21.934 15.9764 21.201C16.1736 21.7304 16.3661 22.2624 16.5441 22.7997C16.9255 23.95 18.7628 24.1486 19.0487 22.7997C19.5609 20.3829 20.9586 18.2039 22.7039 16.508C23.59 15.6472 22.2916 14.3992 21.3781 15.1651Z" fill="#000B07"/>
</g>
<defs>
<clipPath id="clip0">
<rect width="14" height="16" fill="white" transform="translate(9 8)"/>
</clipPath>
</defs>
</svg>
