<svg width="11" height="13" viewBox="0 0 11 13" fill="none" xmlns="http://www.w3.org/2000/svg">
<path fill="currentColor" d="M9.72566 5.82232C8.66131 6.74476 7.72308 7.76722 7.00801 8.94815C6.90204 8.64526 6.80209 8.34006 6.71534 8.02963C6.44642 7.0674 5.33865 7.04589 4.82605 7.77098C4.62468 8.05613 4.43226 8.34758 4.24445 8.64234C4.09085 7.62954 3.84781 6.63387 3.51845 5.66814C2.84122 3.72286 2.00148 1.76575 0.758337 0.141264C0.483998 -0.216558 -0.122761 0.169072 0.0219991 0.590193C0.190665 1.07991 0.443665 1.53076 0.578084 2.03124C0.692704 2.45827 0.820744 2.87947 0.95113 3.30243C1.25284 4.25055 1.49918 5.21703 1.68879 6.1965C2.03844 8.08932 2.33324 9.97814 2.39447 11.9084C2.43202 13.0914 3.78993 13.3616 4.40344 12.4784C4.79423 11.9158 5.13904 11.322 5.48143 10.7264C5.63639 11.1566 5.7876 11.5889 5.92752 12.0254C6.22716 12.96 7.67072 13.1213 7.89541 12.0254C8.29787 10.0618 9.39603 8.29135 10.7674 6.91345C11.4635 6.21402 10.4434 5.20001 9.72566 5.82232Z" />
</svg>
